<?xml version="1.0" standalone="no"?>
<!DOCTYPE svg PUBLIC "-//W3C//DTD SVG 20010904//EN"
 "http://www.w3.org/TR/2001/REC-SVG-20010904/DTD/svg10.dtd">
<svg version="1.0" xmlns="http://www.w3.org/2000/svg"
 width="364.000000pt" height="364.000000pt" viewBox="0 0 364.000000 364.000000"
 preserveAspectRatio="xMidYMid meet">
<metadata>
Created by potrace 1.14, written by Peter Selinger 2001-2017
</metadata>
<g transform="translate(0.000000,364.000000) scale(0.100000,-0.100000)"
fill="#000000" stroke="none">
<path d="M1530 3605 c-41 -7 -84 -15 -95 -18 -11 -3 -57 -15 -103 -26 -192
-50 -464 -183 -603 -295 -14 -12 -43 -34 -65 -51 -53 -42 -179 -168 -239 -240
-28 -33 -52 -62 -55 -65 -8 -8 -83 -121 -96 -144 -6 -11 -29 -53 -51 -93 -122
-217 -195 -486 -209 -763 -24 -481 138 -933 464 -1299 67 -75 189 -183 272
-241 19 -13 37 -27 40 -30 7 -8 140 -90 147 -90 2 0 17 -8 31 -18 15 -10 45
-26 67 -34 22 -9 65 -27 95 -41 30 -14 82 -33 115 -42 33 -9 69 -20 80 -25 25
-11 143 -35 250 -50 202 -29 404 -21 625 26 78 17 257 71 275 84 6 4 42 20 80
35 39 16 81 36 95 45 14 9 36 21 50 28 23 11 54 31 176 113 22 14 82 64 134
111 139 124 237 244 356 433 30 49 93 177 105 215 6 19 18 46 25 60 21 39 65
195 86 305 25 135 32 440 12 585 -33 240 -145 534 -285 745 -29 44 -55 82 -58
85 -4 3 -28 32 -56 65 -71 86 -218 231 -281 275 -174 124 -322 206 -459 255
-27 10 -54 22 -60 25 -16 12 -254 69 -330 80 -97 13 -444 11 -535 -5z"/>
</g>
</svg>
