<svg xmlns="http://www.w3.org/2000/svg" width="97.324" height="116.824" viewBox="0 0 97.324 116.824"><defs><style>.a{fill:#9bc800;}</style></defs><g transform="translate(1585.199 -150.432)"><g transform="translate(-1585.199 150.432)"><path class="a" d="M-1484.229,398.859a2.4,2.4,0,0,0-.4-.2,7.187,7.187,0,0,1-5.6-7.354c-.03-5.132-.039-10.264.016-15.4.012-1.08-.248-1.493-1.374-1.405a29.134,29.134,0,0,1-3.646,0,4.773,4.773,0,0,1-4.717-4.968q-.008-23.721,0-47.442c0-.332.036-.664.059-1.049h58.294v1.272q0,23.436,0,46.871c0,3.345-1.938,5.3-5.288,5.333-1.14.011-2.282.046-3.419-.012-.813-.042-1.031.269-1.027,1.049.029,4.752.014,9.5.014,14.255,0,5.39-1.122,7.08-6,9.045h-2.737c-.086-.068-.161-.169-.259-.2-3.8-1.237-5.623-3.717-5.626-7.691q-.005-7.576,0-15.15c0-.4-.038-.8-.058-1.212h-9.606v1.32c0,5.164.019,10.328-.008,15.492a7.354,7.354,0,0,1-5.283,7.173,5.508,5.508,0,0,0-.592.269Z" transform="translate(1519.444 -282.035)"/><path class="a" d="M-1499.446,181.86a29.072,29.072,0,0,1,9.906-19.36,2.327,2.327,0,0,0,.081-3.38c-1.2-1.188-2.379-2.361-3.561-3.535-.35-.348-.715-.685-1.039-1.056a2.36,2.36,0,0,1,.059-3.38,2.361,2.361,0,0,1,3.383-.006c1.807,1.739,3.652,3.453,5.3,5.333,1.278,1.454,2.3,1.765,4.271.953a27.6,27.6,0,0,1,22.439.439,1.508,1.508,0,0,0,2.028-.414c1.956-2.02,3.965-3.988,5.963-5.968,1.247-1.236,2.661-1.352,3.713-.326s.945,2.539-.315,3.805c-1.373,1.379-2.751,2.753-4.158,4.156a2.326,2.326,0,0,0,.094,3.383,28.966,28.966,0,0,1,9.942,19.355,2.329,2.329,0,0,1-2.318,2.56h-53.475A2.328,2.328,0,0,1-1499.446,181.86Zm16.906-11.836h-.08a2.328,2.328,0,0,0-2.327,2.327h0a2.327,2.327,0,0,0,2.327,2.327h.08a2.327,2.327,0,0,0,2.327-2.327h0A2.327,2.327,0,0,0-1482.54,170.023Zm26.682,2.358v-.058a2.327,2.327,0,0,0-2.328-2.327h-.041a2.327,2.327,0,0,0-2.327,2.327v.058a2.327,2.327,0,0,0,2.327,2.327h.041A2.327,2.327,0,0,0-1455.859,172.381Z" transform="translate(1519.062 -150.432)"/><path class="a" d="M-1208.927,345.185c0,5.586.024,11.171-.008,16.756a7.263,7.263,0,0,1-6.934,7.552,7.288,7.288,0,0,1-7.676-7.521q-.024-16.813,0-33.627a8.737,8.737,0,0,1,.17-1.58,7.193,7.193,0,0,1,7.529-5.906,7.008,7.008,0,0,1,6.835,6.659c.143,5.885.038,11.777.038,17.666Z" transform="translate(1306.241 -281.883)"/><path class="a" d="M-1585.182,345.041c0-5.547-.02-11.094.009-16.64a7.3,7.3,0,0,1,5.059-7.319,7.322,7.322,0,0,1,9.548,7.114c.052,5.85.013,11.7.013,17.552,0,5.433.025,10.866-.011,16.3a7.267,7.267,0,0,1-5.585,7.149,7.054,7.054,0,0,1-8.09-3.589,9.881,9.881,0,0,1-.9-4.039C-1585.239,356.06-1585.182,350.55-1585.182,345.041Z" transform="translate(1585.199 -281.789)"/></g></g></svg>