<svg xmlns="http://www.w3.org/2000/svg" xmlns:xlink="http://www.w3.org/1999/xlink" width="70.812" height="85" viewBox="0 0 70.812 85"><defs><style>.a{fill:url(#a);}.b{fill:#2acb91;}</style><linearGradient id="a" x1="0.5" x2="0.5" y2="1" gradientUnits="objectBoundingBox"><stop offset="0" stop-color="#357782"/><stop offset="1" stop-color="#23505c"/></linearGradient></defs><g transform="translate(1585.199 -150.432)"><g transform="translate(-1585.199 150.432)"><path class="a" d="M-1488.513,377.661a1.743,1.743,0,0,0-.292-.148,5.229,5.229,0,0,1-4.074-5.351c-.022-3.734-.029-7.468.012-11.2.009-.786-.181-1.086-1-1.022a21.193,21.193,0,0,1-2.653,0,3.473,3.473,0,0,1-3.432-3.615q-.006-17.259,0-34.518c0-.242.026-.483.043-.763h42.414v.926q0,17.052,0,34.1a3.547,3.547,0,0,1-3.847,3.88c-.829.008-1.661.034-2.488-.008-.592-.03-.75.2-.747.763.021,3.457.01,6.914.01,10.372,0,3.921-.817,5.152-4.368,6.581h-1.991c-.062-.05-.117-.123-.188-.146a5.341,5.341,0,0,1-4.093-5.6q0-5.512,0-11.023c0-.291-.027-.582-.042-.882h-6.99v.961c0,3.757.014,7.515-.006,11.272a5.351,5.351,0,0,1-3.844,5.219,4.016,4.016,0,0,0-.431.2Z" transform="translate(1514.135 -292.661)"/><path class="b" d="M-1499.449,173.3a21.152,21.152,0,0,1,7.207-14.086,1.693,1.693,0,0,0,.059-2.459l-2.591-2.572c-.255-.253-.52-.5-.756-.769a1.717,1.717,0,0,1,.043-2.46,1.718,1.718,0,0,1,2.461,0c1.315,1.265,2.657,2.512,3.859,3.88a2.288,2.288,0,0,0,3.108.694,20.078,20.078,0,0,1,16.327.32,1.1,1.1,0,0,0,1.476-.3c1.423-1.47,2.885-2.9,4.339-4.342a1.806,1.806,0,0,1,2.7-.237,1.846,1.846,0,0,1-.229,2.769c-1,1-2,2-3.025,3.024a1.692,1.692,0,0,0,.069,2.461,21.076,21.076,0,0,1,7.234,14.082,1.694,1.694,0,0,1-1.686,1.862h-38.907A1.694,1.694,0,0,1-1499.449,173.3Zm12.3-8.612h-.058a1.694,1.694,0,0,0-1.693,1.693h0a1.693,1.693,0,0,0,1.693,1.693h.058a1.693,1.693,0,0,0,1.693-1.693h0A1.693,1.693,0,0,0-1487.149,164.686Zm19.413,1.715v-.042a1.693,1.693,0,0,0-1.693-1.693h-.03a1.693,1.693,0,0,0-1.693,1.693v.042a1.693,1.693,0,0,0,1.693,1.693h.03A1.693,1.693,0,0,0-1467.735,166.4Z" transform="translate(1513.721 -150.432)"/><path class="a" d="M-1212.911,338.555c0,4.064.018,8.128-.006,12.192a5.285,5.285,0,0,1-5.045,5.495,5.3,5.3,0,0,1-5.585-5.472q-.017-12.233,0-24.466a6.357,6.357,0,0,1,.124-1.15,5.233,5.233,0,0,1,5.478-4.3,5.1,5.1,0,0,1,4.973,4.845c.1,4.282.028,8.569.028,12.853Z" transform="translate(1283.716 -292.497)"/><path class="a" d="M-1585.186,338.417c0-4.036-.015-8.072.006-12.107a5.31,5.31,0,0,1,3.681-5.325,5.327,5.327,0,0,1,6.947,5.176c.038,4.257.01,8.514.01,12.771,0,3.953.018,7.906-.008,11.859a5.288,5.288,0,0,1-4.064,5.2,5.132,5.132,0,0,1-5.886-2.612,7.189,7.189,0,0,1-.656-2.939C-1585.228,346.434-1585.187,342.425-1585.186,338.417Z" transform="translate(1585.199 -292.396)"/></g></g></svg>