<svg xmlns="http://www.w3.org/2000/svg" xmlns:xlink="http://www.w3.org/1999/xlink" width="74.417" height="89.343" viewBox="0 0 74.417 89.343"><defs><style>.a{fill:#2acb91;}.b{fill:url(#a);}</style><linearGradient id="a" x1="0.5" x2="0.5" y2="1" gradientUnits="objectBoundingBox"><stop offset="0" stop-color="#357782"/><stop offset="1" stop-color="#23505c"/></linearGradient></defs><g transform="translate(492.954 -150.432)"><g transform="translate(-492.953 150.432)"><path class="a" d="M-455.764,195.15a16.155,16.155,0,0,1-2.121-.8q-16.5-9.138-32.978-18.311a3.662,3.662,0,0,1-2.091-3.318,3.631,3.631,0,0,1,2.062-3.337q16.582-9.215,33.162-18.434a4.037,4.037,0,0,1,4.224.186q9.013,5.041,18.047,10.044c4.782,2.658,9.555,5.334,14.356,7.959a3.986,3.986,0,0,1,2.47,3.547,3.976,3.976,0,0,1-2.444,3.564q-16.121,8.92-32.223,17.878A23.232,23.232,0,0,1-455.764,195.15Z" transform="translate(492.953 -150.432)"/><path class="b" d="M-418.2,373.644a4.021,4.021,0,0,1-2.338,3.574c-5.841,3.221-11.664,6.476-17.494,9.716-5.006,2.783-10.026,5.541-15.013,8.359a4.327,4.327,0,0,1-4.615.01q-16.284-9.1-32.606-18.125a3.818,3.818,0,0,1-2.262-3.446,3.78,3.78,0,0,1,2.274-3.441c1.754-.948,3.5-1.917,5.205-2.947a1.618,1.618,0,0,1,1.875-.026c7.21,4.04,14.466,8,21.659,12.071a11.47,11.47,0,0,0,12.076.048c7.237-4.068,14.514-8.064,21.752-12.129a1.69,1.69,0,0,1,1.96.011c1.8,1.085,3.648,2.092,5.481,3.121A3.79,3.79,0,0,1-418.2,373.644Z" transform="translate(492.606 -329.133)"/><path class="b" d="M-455.527,523.655a13.976,13.976,0,0,1-1.984-.732q-16.6-9.192-33.18-18.431a3.644,3.644,0,0,1-.081-6.48q2.929-1.774,5.977-3.347a1.825,1.825,0,0,1,1.444.168c7.273,4,14.547,8,21.775,12.083a11.416,11.416,0,0,0,11.978.012c7.274-4.076,14.577-8.1,21.85-12.177a1.546,1.546,0,0,1,1.781,0c1.8,1.078,3.661,2.068,5.48,3.122,2.866,1.661,2.879,5.085-.025,6.706q-16.476,9.2-32.993,18.323A14.1,14.1,0,0,1-455.527,523.655Z" transform="translate(492.751 -434.312)"/></g></g></svg>