<svg xmlns="http://www.w3.org/2000/svg" width="70.825" height="85" viewBox="0 0 70.825 85"><g transform="translate(2129.005 -150.432)"><g transform="translate(-2129.005 150.432)"><path d="M-2108.511,341.748c-4.976-1.643-8.068-5.482-10.891-9.531a52.52,52.52,0,0,1-9.281-24.427c-.662-5.847-.442-11.661,1.945-17.167,3.164-7.3,8.885-11.253,16.691-12.337a20.964,20.964,0,0,1,10.243,1.4,41.73,41.73,0,0,0,5.522,1.726,15.053,15.053,0,0,0,8.3-.876,40.026,40.026,0,0,1,6.793-2.077c7.247-1.172,13.478,1.043,18.661,6.2.994.989.762,2.177-.505,2.95a15.21,15.21,0,0,0-7.374,10.153c-1.516,7.242,1.584,14.271,8.733,17.443,1.458.647,1.772,1.329,1.266,2.809a60.739,60.739,0,0,1-9.222,17.865q-.482.622-1,1.212c-1.811,2.048-3.779,3.88-6.5,4.659h-2.989a1.152,1.152,0,0,0-.308-.113,27.3,27.3,0,0,1-9.208-2.553,10.622,10.622,0,0,0-8.457.027c-1.918.764-3.875,1.444-5.852,2.04a27.83,27.83,0,0,1-3.405.6Z" transform="translate(2129.005 -256.748)"/><path d="M-1915.872,169.163c.095-8.674,7-16.987,15.515-18.684a1.87,1.87,0,0,1,2.319,2.015A20.1,20.1,0,0,1-1912.6,171.46c-.294.081-.582.186-.877.259a1.824,1.824,0,0,1-2.39-1.8C-1915.877,169.664-1915.872,169.414-1915.872,169.163Z" transform="translate(1951.256 -150.432)"/></g></g></svg>